<svg xmlns="http://www.w3.org/2000/svg" width="76.663" height="64" viewBox="0 0 76.663 64">
  <g id="Groupe_492" data-name="Groupe 492" transform="translate(-0.01 -0.006)">
    <path id="Tracé_10" data-name="Tracé 10" d="M60.118,50.03H52.132a.857.857,0,0,0-.941.941v1.024a3.759,3.759,0,0,0,3.763,3.885,5.338,5.338,0,0,0,4.271-2.52.892.892,0,0,1,1.281-.169l.941.684a.972.972,0,0,1,.213,1.323,7.64,7.64,0,0,1-6.7,3.714,6.864,6.864,0,0,1-7.045-6.918V45.252a7.047,7.047,0,0,1,14.091,0v2.9a1.711,1.711,0,0,1-1.882,1.882M58.71,45.251a3.765,3.765,0,1,0-7.526,0v1.025a.856.856,0,0,0,.941.941h5.637a.856.856,0,0,0,.941-.941Z" fill="#e42313"/>
    <path id="Tracé_11" data-name="Tracé 11" d="M8.194,23.245H2.509a1,1,0,0,1-1.1-1.1V12.23a.5.5,0,0,1,.55-.55h.826a.5.5,0,0,1,.549.55v8.812a.5.5,0,0,0,.552.552H8.194a.5.5,0,0,1,.55.55V22.7a.5.5,0,0,1-.55.55" fill="#e42313"/>
    <path id="Tracé_12" data-name="Tracé 12" d="M26.048,23.245H25.4a.439.439,0,0,1-.4-.226.227.227,0,0,0-.351-.1,4.138,4.138,0,0,1-2.178.575,4.055,4.055,0,1,1,0-8.108,4.475,4.475,0,0,1,1.852.4c.2.1.351-.049.351-.3a2.2,2.2,0,0,0-2.2-2.278,4.307,4.307,0,0,0-2.1.522c-.325.176-.525.05-.7-.249l-.318-.577a.562.562,0,0,1,.274-.751,5.656,5.656,0,0,1,2.83-.726,4.024,4.024,0,0,1,4.13,4.056V22.7a.5.5,0,0,1-.55.55m-3.58-6.084a2.28,2.28,0,1,0,2.2,2.278,2.2,2.2,0,0,0-2.2-2.278" fill="#e42313"/>
    <path id="Tracé_13" data-name="Tracé 13" d="M38.117,13.856a.555.555,0,0,1-.776.2,5.02,5.02,0,0,0-2.6-.851,2.2,2.2,0,0,0-2.2,2.278V22.7a.5.5,0,0,1-.552.55h-.825a.5.5,0,0,1-.552-.55V15.483a4.025,4.025,0,0,1,4.132-4.056,6.4,6.4,0,0,1,3.5,1.127.558.558,0,0,1,.166.773Z" fill="#e42313"/>
    <path id="Tracé_14" data-name="Tracé 14" d="M46.9,23.494a4.024,4.024,0,0,1-4.13-4.055V13.881a.5.5,0,0,0-.552-.553h-.55a.5.5,0,0,1-.55-.552V12.23a.5.5,0,0,1,.55-.55h.55a.5.5,0,0,0,.552-.547V8.923a.5.5,0,0,1,.55-.55h.826a.5.5,0,0,1,.55.55v2.209a.5.5,0,0,0,.552.55h2.753a.5.5,0,0,1,.55.547v.549a.5.5,0,0,1-.55.549H45.252a.5.5,0,0,0-.552.55v5.565a2.2,2.2,0,0,0,2.2,2.278,2.162,2.162,0,0,0,1.527-.627.652.652,0,0,1,.927-.1l.5.35a.519.519,0,0,1,.1.776A3.888,3.888,0,0,1,46.9,23.5" fill="#e42313"/>
    <path id="Tracé_15" data-name="Tracé 15" d="M65.154,15.6h-2.02a.668.668,0,0,1-.735-.735V8.624a.667.667,0,0,1,.735-.734h2.02a2.55,2.55,0,0,1,2.753,2.537v2.631A2.551,2.551,0,0,1,65.154,15.6m1.469-5.174a1.411,1.411,0,0,0-1.469-1.436h-1.1a.334.334,0,0,0-.367.367v4.774a.334.334,0,0,0,.367.367h1.1a1.4,1.4,0,0,0,1.469-1.436Z" fill="#e42313"/>
    <path id="Tracé_16" data-name="Tracé 16" d="M74.885,12.291H71.763a.334.334,0,0,0-.367.367v.4a1.469,1.469,0,0,0,1.469,1.519,2.087,2.087,0,0,0,1.668-.985.35.35,0,0,1,.5-.066l.367.271a.379.379,0,0,1,.083.517,2.979,2.979,0,0,1-2.62,1.452,2.684,2.684,0,0,1-2.755-2.7v-2.64a2.755,2.755,0,0,1,5.508,0v1.134a.667.667,0,0,1-.734.735m-.55-1.869a1.47,1.47,0,1,0-2.938,0v.4a.334.334,0,0,0,.367.367h2.2a.334.334,0,0,0,.368-.367Z" fill="#e42313"/>
    <path id="Tracé_17" data-name="Tracé 17" d="M10.976,54.131h-.941A.667.667,0,0,1,9.3,53.4V45.313c0-.268-.334-.336-.47,0L7.294,48.785c-.234.535-.6.941-1.1.941s-.867-.368-1.1-.941l-1.54-3.471c-.166-.336-.47-.268-.47,0v8.078a.666.666,0,0,1-.734.734H1.414a.667.667,0,0,1-.735-.734V39.437a.668.668,0,0,1,.735-.735h1.3a1.072,1.072,0,0,1,.967.735l2.2,5.375c.066.157.166.332.3.332s.234-.168.3-.332l2.2-5.375a1.075,1.075,0,0,1,.967-.735h1.317a.667.667,0,0,1,.734.735V53.391a.666.666,0,0,1-.734.734" fill="#e42313"/>
    <path id="Tracé_18" data-name="Tracé 18" d="M21.619,54.465a5.365,5.365,0,0,1-5.507-5.408V39.445a.667.667,0,0,1,.734-.735h1.1a.667.667,0,0,1,.734.735v9.613a2.939,2.939,0,1,0,5.875,0V39.445a.667.667,0,0,1,.734-.735h1.1a.667.667,0,0,1,.734.735v9.613a5.361,5.361,0,0,1-5.508,5.408" fill="#e42313"/>
    <path id="Tracé_19" data-name="Tracé 19" d="M37.944,64.006c-3.829,0-6.054-2.846-7.122-4.886a1.267,1.267,0,0,1,.267-1.664l1.024-.859a.81.81,0,0,1,1.29.314c.941,1.557,2.449,3.275,4.547,3.275,2.8,0,3.92-2.2,3.92-4.241,0-3.65-3.92-3.65-3.92-3.65-4.362-.27-6.855-3.006-6.855-7.087,0-3.435,2.27-7.086,6.855-7.086a6.859,6.859,0,0,1,5.563,2.9,1.1,1.1,0,0,1-.133,1.61l-1.068.914a.953.953,0,0,1-1.38-.157,3.926,3.926,0,0,0-2.979-1.5,3.354,3.354,0,0,0-3.561,3.329c0,3.167,3.561,3.329,3.561,3.329,3.92.268,7.344,2.361,7.344,7.409C45.3,60.513,42.582,64,37.953,64" fill="#e42313"/>
    <path id="Tracé_20" data-name="Tracé 20" d="M76.032,41.615A.738.738,0,0,1,75,41.88a6.707,6.707,0,0,0-3.471-1.134,2.937,2.937,0,0,0-2.938,3.037V53.4a.666.666,0,0,1-.734.734h-1.1a.666.666,0,0,1-.734-.734V43.783a5.367,5.367,0,0,1,5.508-5.408,8.539,8.539,0,0,1,4.672,1.5.748.748,0,0,1,.234,1.036Z" fill="#e42313"/>
    <path id="Tracé_21" data-name="Tracé 21" d="M.133,31.69H76.55a.138.138,0,0,0,0-.274H.133a.138.138,0,0,0,0,.274" fill="#e42313"/>
    <path id="Tracé_22" data-name="Tracé 22" d="M.853,4.534H50.086a.06.06,0,0,0,0-.118H.853a.06.06,0,0,0,0,.118" fill="#e33e12"/>
    <path id="Tracé_23" data-name="Tracé 23" d="M61.8,4.084H75.016a.06.06,0,0,0,0-.118H61.8a.06.06,0,0,0,0,.118" fill="#e33e12"/>
    <path id="Tracé_24" data-name="Tracé 24" d="M13.312,8.937A10.9,10.9,0,0,0,19.952.991C20.126,0,18.615-.42,18.44.574a8.952,8.952,0,0,1-3.172,5.347,10.7,10.7,0,0,1-1.725,1.171c-.18.1-.365.194-.552.284s-.241.1-.089.044c-.927.37-.524,1.882.417,1.511" fill="#9e9494"/>
  </g>
</svg>
