<svg xmlns="http://www.w3.org/2000/svg" viewBox="0 0 46.13 56.53">
  <defs>
    <style>
      .cls-1 {
        fill: #9d9493;
      }

      .cls-2 {
        fill: #e32119;
      }
    </style>
  </defs>
  <title>mem-logo</title>
  <g id="Calque_2" data-name="Calque 2">
    <g id="Calque_1-2" data-name="Calque 1">
      <g id="_Groupe_" data-name="&lt;Groupe&gt;">
        <path id="_Tracé_transparent_" data-name="&lt;Tracé transparent&gt;" class="cls-1" d="M1.5.92H7.35a.91.91,0,0,1,.91.91h0a.91.91,0,0,0,1.52.67A12,12,0,0,1,12,.85,9.14,9.14,0,0,1,16.23,0a10,10,0,0,1,8.23,4,.9.9,0,0,0,1.37,0,11.45,11.45,0,0,1,9.08-4Q46.13,0,46.13,13.6v9.6a.92.92,0,0,1-.92.91H39.33a.91.91,0,0,1-.91-.91V15.68c0-3.18-.38-5.43-1.16-6.75a4.19,4.19,0,0,0-3.92-2A5,5,0,0,0,28.72,9.3c-1,1.6-1.44,9.36-1.44,12.88v1a.92.92,0,0,1-.92.91H20.49a.92.92,0,0,1-.92-.91V15.78q0-8.86-5.11-8.86A5.13,5.13,0,0,0,9.74,9.34c-1,1.61-1.48,9.37-1.48,12.84v1a.91.91,0,0,1-.91.91H1.5a.91.91,0,0,1-.91-.91V1.83A.91.91,0,0,1,1.5.92Z"/>
        <path id="_Tracé_transparent_2" data-name="&lt;Tracé transparent&gt;" class="cls-2" d="M16.55,27.15H19.8a.92.92,0,0,1,.91.92v1.11a10.68,10.68,0,0,1,2.5-2.07A6,6,0,0,1,26,26.55a6.59,6.59,0,0,1,5.23,2.38.89.89,0,0,0,1.33,0,7.58,7.58,0,0,1,5.79-2.41q7.41,0,7.41,9V48.19a.91.91,0,0,1-.91.91H41.57a.91.91,0,0,1-.91-.91V36.91a9.4,9.4,0,0,0-.77-4.46,2.77,2.77,0,0,0-2.59-1.33,3.29,3.29,0,0,0-3,1.58,10.13,10.13,0,0,0-1,5.07l0,17.85a.9.9,0,0,1-.91.91H29.06a.91.91,0,0,1-.91-.91l0-18.64c0-3.91-1.12-5.86-3.38-5.86a3.39,3.39,0,0,0-3.12,1.6,10,10,0,0,0-1,5.05V48.19a.91.91,0,0,1-.91.91H16.55a.91.91,0,0,1-.91-.91V28.07A.92.92,0,0,1,16.55,27.15Z"/>
        <path id="_Tracé_transparent_3" data-name="&lt;Tracé transparent&gt;" class="cls-2" d="M14,34.66H4.6a.9.9,0,0,0-.89,1.12,3.94,3.94,0,0,0,1,1.74,3.53,3.53,0,0,0,2.64,1A3.47,3.47,0,0,0,9.42,38a7,7,0,0,0,1.38-1.53A.91.91,0,0,1,12,36.17l1.26.7a.93.93,0,0,1,.3,1.34,10.31,10.31,0,0,1-.84,1.06,7.7,7.7,0,0,1-1.57,1.32,6.41,6.41,0,0,1-1.81.75,8.85,8.85,0,0,1-2.11.24A6.87,6.87,0,0,1,2,39.49a7.87,7.87,0,0,1-2-5.6,8.07,8.07,0,0,1,1.92-5.6A6.58,6.58,0,0,1,7,26.18a6.55,6.55,0,0,1,5.09,2.05A8.1,8.1,0,0,1,14,33.87ZM9.11,31.91a.92.92,0,0,0,.72-1.49,3.21,3.21,0,0,0-2.72-1.2A3.6,3.6,0,0,0,6,29.4a3.36,3.36,0,0,0-1.74,1.39,3.91,3.91,0,0,0-.48,1.12Z"/>
      </g>
    </g>
  </g>
</svg>
