<?xml version="1.0" standalone="no"?><!-- Generator: Adobe Fireworks CS6, Export SVG Extension by Aaron Beall (http://fireworks.abeall.com) . Version: 0.6.1  --><!DOCTYPE svg PUBLIC "-//W3C//DTD SVG 1.1//EN" "http://www.w3.org/Graphics/SVG/1.1/DTD/svg11.dtd"><svg id="m5.fw-Page%201" viewBox="0 0 53 52" style="background-color:#ffffff00" version="1.1"	xmlns="http://www.w3.org/2000/svg" xmlns:xlink="http://www.w3.org/1999/xlink" xml:space="preserve"	x="0px" y="0px" width="53px" height="52px">	<g id="ai">		<g>			<g>				<path d="M 27 14 C 20.3726 14 15 19.3726 15 26 C 15 32.627 20.3726 38 27 38 C 33.6274 38 39 32.627 39 26 C 39 19.3726 33.6274 14 27 14 Z" fill="#9c00ff"/>			</g>			<g>				<path opacity="0.498" d="M 27 9.5 C 22.1909 9.5 17.8765 11.5698 14.8604 14.8525 L 17.4399 17.2212 C 19.8179 14.6338 23.2173 13 27 13 C 30.7827 13 34.1821 14.6338 36.5601 17.2212 L 39.1396 14.8525 C 36.1235 11.5698 31.8091 9.5 27 9.5 Z" fill="#9c00ff"/>				<path opacity="0.298" d="M 21.6123 46.792 L 22.6196 42.9229 C 15.0869 40.9707 9.5 34.1348 9.5 26 C 9.5 24.665 9.6641 23.3696 9.9482 22.1196 L 6.0488 21.2324 C 5.7007 22.7676 5.5 24.3589 5.5 26 C 5.5 36.0098 12.3506 44.3975 21.6123 46.792 Z" fill="#9c00ff"/>				<path opacity="0.098" d="M 10.437 10.7905 C 14.5522 6.3125 20.4531 3.5 27 3.5 C 33.5469 3.5 39.4478 6.3125 43.563 10.79 L 46.1484 8.416 C 41.396 3.2437 34.5776 0 27 0 C 19.4224 0 12.604 3.2437 7.8516 8.416 L 10.437 10.7905 Z" fill="#9c00ff"/>				<path opacity="0.298" d="M 44.5 26 C 44.5 34.0586 39.0176 40.8438 31.5918 42.8682 L 32.6372 46.7275 C 41.772 44.248 48.5 35.9199 48.5 26 C 48.5 24.3589 48.2993 22.7676 47.9512 21.2324 L 44.0518 22.1196 C 44.3359 23.3696 44.5 24.665 44.5 26 Z" fill="#9c00ff"/>				<path opacity="0.498" d="M 40 26 C 40 31.9844 35.9302 37.0234 30.4165 38.5293 L 31.3311 41.9063 C 38.3394 40.001 43.5 33.6113 43.5 26 C 43.5 24.7407 43.3462 23.5195 43.0791 22.3408 L 39.667 23.1177 C 39.8784 24.0459 40 25.0083 40 26 Z" fill="#9c00ff"/>				<path opacity="0.098" d="M 21.355 47.7822 C 11.6719 45.2715 4.5 36.458 4.5 26 C 4.5 24.2842 4.6992 22.6152 5.0649 21.0083 L 1.6504 20.2314 C 1.2295 22.0874 1 24.0166 1 26 C 1 38.1045 9.2725 48.2773 20.4727 51.1729 L 21.355 47.7822 Z" fill="#9c00ff"/>				<path opacity="0.498" d="M 22.8706 41.958 L 23.7515 38.5723 C 18.1528 37.124 14 32.0449 14 26 C 14 25.0083 14.1216 24.0459 14.333 23.1177 L 10.9209 22.3408 C 10.6538 23.5195 10.5 24.7407 10.5 26 C 10.5 33.6836 15.7603 40.1221 22.8706 41.958 Z" fill="#9c00ff"/>				<path opacity="0.098" d="M 48.9351 21.0083 C 49.3003 22.6152 49.5 24.2842 49.5 26 C 49.5 36.3643 42.4546 45.1084 32.9028 47.709 L 33.8188 51.0898 C 44.8696 48.0938 53 37.999 53 26 C 53 24.0166 52.7705 22.0874 52.3496 20.2314 L 48.9351 21.0083 Z" fill="#9c00ff"/>				<path opacity="0.298" d="M 27 4.5 C 20.7339 4.5 15.1113 7.1973 11.1816 11.4741 L 14.1309 14.1821 C 17.3315 10.6992 21.9082 8.5 27 8.5 C 32.0918 8.5 36.6685 10.6992 39.8691 14.1821 L 42.8179 11.4741 C 38.8882 7.1973 33.2661 4.5 27 4.5 Z" fill="#9c00ff"/>			</g>		</g>	</g></svg>