<?xml version="1.0" encoding="utf-8"?>
<!-- Generator: Adobe Illustrator 16.0.3, SVG Export Plug-In . SVG Version: 6.00 Build 0)  -->
<!DOCTYPE svg PUBLIC "-//W3C//DTD SVG 1.1//EN" "http://www.w3.org/Graphics/SVG/1.1/DTD/svg11.dtd">
<svg version="1.1" id="icon-slideshow-panel" xmlns="http://www.w3.org/2000/svg" xmlns:xlink="http://www.w3.org/1999/xlink"
	 x="0px" y="0px" width="40px" height="40px" viewBox="0 0 40 40" enable-background="new 0 0 40 40" xml:space="preserve">
<rect x="17" y="25" fill="#D85349" width="17" height="2"/>
<rect x="6" y="25" fill="#D85349" width="9" height="2"/>
<rect x="17" y="29" fill="#D85349" width="15" height="2"/>
<path fill="#D85349" d="M1,3v34h38V3H1z M37,5v14H3V5H37z M3,35V21h34v14H3z"/>
<polygon fill="#D85349" points="27,14 27,15 28,15 28,16 29,16 29,17 27,17 27,16 26,16 26,15 25,15 25,14 26,14 26,13 27,13 27,12 
	29,12 29,13 28,13 28,14 "/>
<polygon fill="#D85349" points="33,15 33,14 32,14 32,13 31,13 31,12 33,12 33,13 34,13 34,14 35,14 35,15 34,15 34,16 33,16 33,17 
	31,17 31,16 32,16 32,15 "/>
</svg>
